<svg width="115" height="106" viewBox="0 0 115 106" fill="none" xmlns="http://www.w3.org/2000/svg">
<rect x="2" width="113" height="106" rx="30" fill="#FAFF00"/>
<path d="M53.1033 55.6667C64.77 64 58.1033 77.3333 58.1033 77.3333L48.1033 70.6667M53.5366 48.68L46.6666 70.6667H33.3333L26.4633 48.68C25.4975 45.5912 25.2956 42.3142 25.875 39.1303C26.4545 35.9463 27.7979 32.9505 29.79 30.4L38.4233 19.35C38.6103 19.1104 38.8496 18.9165 39.1228 18.7831C39.396 18.6498 39.696 18.5805 40 18.5805C40.304 18.5805 40.604 18.6498 40.8772 18.7831C41.1504 18.9165 41.3896 19.1104 41.5766 19.35L50.21 30.4C52.2021 32.9505 53.5455 35.9463 54.1249 39.1303C54.7044 42.3142 54.5025 45.5912 53.5366 48.68V48.68ZM33.3333 80.6667C33.3333 87.3333 40 90.6667 40 90.6667C40 90.6667 46.6666 87.3333 46.6666 80.6667H33.3333ZM28.3333 55.6667C16.6666 64 23.3333 77.3333 23.3333 77.3333L33.3333 70.6667L28.3333 55.6667Z" stroke="black" stroke-width="1.5" stroke-linecap="round" stroke-linejoin="round"/>
<path d="M40 50.6667C38.2319 50.6667 36.5362 49.9643 35.2859 48.7141C34.0357 47.4638 33.3333 45.7681 33.3333 44C33.3333 42.2319 34.0357 40.5362 35.2859 39.286C36.5362 38.0357 38.2319 37.3333 40 37.3333C41.7681 37.3333 43.4638 38.0357 44.714 39.286C45.9643 40.5362 46.6666 42.2319 46.6666 44C46.6666 45.7681 45.9643 47.4638 44.714 48.7141C43.4638 49.9643 41.7681 50.6667 40 50.6667Z" stroke="black" stroke-width="1.5" stroke-linecap="round" stroke-linejoin="round"/>
<path d="M79 37.12C78.9067 37.12 78.76 37.1133 78.56 37.1C78.36 37.0867 78.1467 37.0733 77.92 37.06C77.6933 37.0467 77.48 37.0333 77.28 37.02C77.08 37.0067 76.9333 37 76.84 37H74.9C74.8067 37 74.66 37.0067 74.46 37.02C74.26 37.0333 74.0467 37.0467 73.82 37.06C73.6067 37.0733 73.4 37.0867 73.2 37.1C73 37.1133 72.8533 37.12 72.76 37.12L72.72 37.04L72.78 36.28L72.88 36.2C73.08 36.2 73.3133 36.1933 73.58 36.18C73.86 36.1667 74.06 36.1067 74.18 36C74.2867 35.9067 74.3933 35.7867 74.5 35.64C74.6067 35.4933 74.68 35.2333 74.72 34.86C74.7333 34.7667 74.74 34.66 74.74 34.54C74.7533 34.4067 74.76 34.2467 74.76 34.06C74.7733 33.8733 74.78 33.6467 74.78 33.38C74.78 33.1133 74.78 32.78 74.78 32.38V28.72C74.78 27.9867 74.7733 27.3333 74.76 26.76C74.7467 26.1867 74.7333 25.76 74.72 25.48H74.5C73.9933 25.48 73.5733 25.4867 73.24 25.5C72.9067 25.5 72.64 25.5133 72.44 25.54C72.24 25.5533 72.0867 25.5733 71.98 25.6C71.8867 25.6267 71.82 25.66 71.78 25.7C71.6333 25.7667 71.5133 25.8733 71.42 26.02C71.3267 26.1667 71.2667 26.34 71.24 26.54L71.16 26.62H70.3L70.44 23.94L70.52 23.76L70.64 23.7C70.7467 23.74 70.98 23.78 71.34 23.82C71.7 23.8467 72.0933 23.8667 72.52 23.88C72.9467 23.8933 73.3533 23.9067 73.74 23.92C74.14 23.92 74.4267 23.92 74.6 23.92H77.12C77.2933 23.92 77.5733 23.92 77.96 23.92C78.36 23.9067 78.7733 23.8933 79.2 23.88C79.6267 23.8667 80.02 23.8467 80.38 23.82C80.74 23.78 80.9733 23.74 81.08 23.7L81.2 23.76L81.28 23.94L81.44 26.62H80.56L80.48 26.54C80.4533 26.34 80.3933 26.1667 80.3 26.02C80.2067 25.8733 80.0867 25.7667 79.94 25.7C79.9 25.6467 79.8267 25.6067 79.72 25.58C79.6267 25.54 79.48 25.5133 79.28 25.5C79.08 25.4867 78.8133 25.48 78.48 25.48C78.16 25.48 77.7467 25.48 77.24 25.48H77.02C77.0067 25.8 76.9933 26.2267 76.98 26.76C76.98 27.2933 76.98 27.94 76.98 28.7V31.98C76.98 32.46 76.98 32.8533 76.98 33.16C76.98 33.4533 76.98 33.7 76.98 33.9C76.9933 34.1 77 34.2733 77 34.42C77.0133 34.5533 77.0267 34.7 77.04 34.86C77.0667 35.2467 77.14 35.5133 77.26 35.66C77.38 35.8067 77.4933 35.92 77.6 36C77.6533 36.0533 77.7267 36.0933 77.82 36.12C77.9267 36.1467 78.04 36.1667 78.16 36.18C78.28 36.1933 78.4 36.2 78.52 36.2C78.6533 36.2 78.7733 36.2 78.88 36.2L78.98 36.28L79.04 37.04L79 37.12ZM87.2444 37.08C87.151 37.08 87.011 37.0733 86.8244 37.06C86.6377 37.0467 86.4377 37.0333 86.2244 37.02C86.011 37.02 85.811 37.0133 85.6244 37C85.4377 37 85.2977 37 85.2044 37H84.1244C84.031 37 83.8844 37 83.6844 37C83.4977 37.0133 83.2977 37.02 83.0844 37.02C82.8844 37.0333 82.6844 37.0467 82.4844 37.06C82.2977 37.0733 82.1577 37.08 82.0644 37.08L82.0444 37L82.0844 36.32L82.1444 36.24C82.3444 36.24 82.551 36.2333 82.7644 36.22C82.9777 36.1933 83.1377 36.1267 83.2444 36.02C83.3377 35.9267 83.4044 35.8067 83.4444 35.66C83.4844 35.5133 83.5177 35.3067 83.5444 35.04C83.5577 34.9467 83.5644 34.8533 83.5644 34.76C83.5777 34.6667 83.5844 34.5667 83.5844 34.46C83.5977 34.3533 83.6044 34.2267 83.6044 34.08C83.6044 33.9333 83.6044 33.7533 83.6044 33.54V31.28C83.6044 31.0267 83.6044 30.8267 83.6044 30.68C83.6044 30.52 83.5977 30.3867 83.5844 30.28C83.5844 30.1733 83.5777 30.08 83.5644 30C83.5644 29.9067 83.5577 29.8 83.5444 29.68C83.5177 29.5467 83.4777 29.42 83.4244 29.3C83.371 29.18 83.3244 29.1 83.2844 29.06C83.151 28.8867 82.9844 28.7867 82.7844 28.76C82.5844 28.7333 82.3777 28.72 82.1644 28.72L82.0844 28.64V27.96L82.1644 27.9H83.1844C83.491 27.9 83.8177 27.9 84.1644 27.9C84.511 27.8867 84.8177 27.86 85.0844 27.82L85.7844 27.72L85.9044 28.1C85.8777 28.1533 85.851 28.24 85.8244 28.36C85.811 28.4667 85.7977 28.5867 85.7844 28.72C85.7844 28.84 85.7777 28.9667 85.7644 29.1C85.7644 29.22 85.7644 29.32 85.7644 29.4C85.7644 29.5067 85.7577 29.6067 85.7444 29.7C85.7444 29.78 85.7444 29.88 85.7444 30C85.7444 30.1067 85.7377 30.2467 85.7244 30.42C85.7244 30.5933 85.7244 30.8067 85.7244 31.06V33.3C85.7244 33.5667 85.7244 33.7867 85.7244 33.96C85.7377 34.12 85.7444 34.26 85.7444 34.38C85.7577 34.5 85.7644 34.6133 85.7644 34.72C85.7777 34.8133 85.791 34.92 85.8044 35.04C85.831 35.32 85.8577 35.5333 85.8844 35.68C85.9244 35.8133 85.9977 35.9267 86.1044 36.02C86.211 36.1267 86.3577 36.1933 86.5444 36.22C86.7444 36.2333 86.9444 36.24 87.1444 36.24L87.2444 36.34L87.2844 37L87.2444 37.08ZM83.1844 24.74C83.1844 24.58 83.2177 24.42 83.2844 24.26C83.351 24.1 83.4444 23.96 83.5644 23.84C83.6844 23.7067 83.8177 23.6067 83.9644 23.54C84.1244 23.46 84.291 23.42 84.4644 23.42C84.7977 23.42 85.0977 23.56 85.3644 23.84C85.6444 24.1067 85.7844 24.4067 85.7844 24.74C85.7844 24.9133 85.7444 25.08 85.6644 25.24C85.5977 25.3867 85.4977 25.52 85.3644 25.64C85.2444 25.76 85.1044 25.8533 84.9444 25.92C84.7844 25.9867 84.6244 26.02 84.4644 26.02C84.1177 26.02 83.8177 25.8933 83.5644 25.64C83.311 25.3867 83.1844 25.0867 83.1844 24.74ZM95.9377 30.54L95.8577 30.48C95.8577 30.1733 95.7643 29.9267 95.5777 29.74C95.4043 29.54 95.191 29.3867 94.9377 29.28C94.6843 29.1733 94.411 29.1 94.1177 29.06C93.8377 29.02 93.591 29 93.3777 29C92.8977 29 92.4777 29.0933 92.1177 29.28C91.7577 29.4667 91.4643 29.7133 91.2377 30.02C91.011 30.3267 90.8377 30.68 90.7177 31.08C90.611 31.48 90.5577 31.8933 90.5577 32.32C90.5577 32.7733 90.6177 33.2067 90.7377 33.62C90.871 34.0333 91.0643 34.4 91.3177 34.72C91.571 35.04 91.891 35.3 92.2777 35.5C92.6777 35.6867 93.1443 35.78 93.6777 35.78C94.131 35.78 94.611 35.7333 95.1177 35.64C95.6243 35.5467 96.0777 35.3933 96.4777 35.18L96.8177 35.66L96.5177 36.22C96.371 36.3267 96.1777 36.44 95.9377 36.56C95.711 36.6667 95.451 36.7733 95.1577 36.88C94.8643 36.9733 94.5443 37.0533 94.1977 37.12C93.8643 37.1867 93.531 37.22 93.1977 37.22C92.5443 37.22 91.9177 37.1067 91.3177 36.88C90.731 36.64 90.211 36.3133 89.7577 35.9C89.3177 35.4733 88.9643 34.9667 88.6977 34.38C88.431 33.78 88.2977 33.12 88.2977 32.4C88.2977 31.6667 88.431 31 88.6977 30.4C88.9643 29.8 89.331 29.2867 89.7977 28.86C90.2643 28.4333 90.8043 28.1 91.4177 27.86C92.0443 27.62 92.711 27.5 93.4177 27.5C93.7377 27.5 94.0577 27.5267 94.3777 27.58C94.711 27.62 95.0243 27.6733 95.3177 27.74C95.6243 27.8067 95.8977 27.8867 96.1377 27.98C96.3777 28.06 96.571 28.14 96.7177 28.22L96.7777 28.4L96.5577 30.54H95.9377ZM79 59.12C78.9067 59.12 78.76 59.1133 78.56 59.1C78.36 59.0867 78.1467 59.0733 77.92 59.06C77.6933 59.0467 77.48 59.0333 77.28 59.02C77.08 59.0067 76.9333 59 76.84 59H74.9C74.8067 59 74.66 59.0067 74.46 59.02C74.26 59.0333 74.0467 59.0467 73.82 59.06C73.6067 59.0733 73.4 59.0867 73.2 59.1C73 59.1133 72.8533 59.12 72.76 59.12L72.72 59.04L72.78 58.28L72.88 58.2C73.08 58.2 73.3133 58.1933 73.58 58.18C73.86 58.1667 74.06 58.1067 74.18 58C74.2867 57.9067 74.3933 57.7867 74.5 57.64C74.6067 57.4933 74.68 57.2333 74.72 56.86C74.7333 56.7667 74.74 56.66 74.74 56.54C74.7533 56.4067 74.76 56.2467 74.76 56.06C74.7733 55.8733 74.78 55.6467 74.78 55.38C74.78 55.1133 74.78 54.78 74.78 54.38V50.72C74.78 49.9867 74.7733 49.3333 74.76 48.76C74.7467 48.1867 74.7333 47.76 74.72 47.48H74.5C73.9933 47.48 73.5733 47.4867 73.24 47.5C72.9067 47.5 72.64 47.5133 72.44 47.54C72.24 47.5533 72.0867 47.5733 71.98 47.6C71.8867 47.6267 71.82 47.66 71.78 47.7C71.6333 47.7667 71.5133 47.8733 71.42 48.02C71.3267 48.1667 71.2667 48.34 71.24 48.54L71.16 48.62H70.3L70.44 45.94L70.52 45.76L70.64 45.7C70.7467 45.74 70.98 45.78 71.34 45.82C71.7 45.8467 72.0933 45.8667 72.52 45.88C72.9467 45.8933 73.3533 45.9067 73.74 45.92C74.14 45.92 74.4267 45.92 74.6 45.92H77.12C77.2933 45.92 77.5733 45.92 77.96 45.92C78.36 45.9067 78.7733 45.8933 79.2 45.88C79.6267 45.8667 80.02 45.8467 80.38 45.82C80.74 45.78 80.9733 45.74 81.08 45.7L81.2 45.76L81.28 45.94L81.44 48.62H80.56L80.48 48.54C80.4533 48.34 80.3933 48.1667 80.3 48.02C80.2067 47.8733 80.0867 47.7667 79.94 47.7C79.9 47.6467 79.8267 47.6067 79.72 47.58C79.6267 47.54 79.48 47.5133 79.28 47.5C79.08 47.4867 78.8133 47.48 78.48 47.48C78.16 47.48 77.7467 47.48 77.24 47.48H77.02C77.0067 47.8 76.9933 48.2267 76.98 48.76C76.98 49.2933 76.98 49.94 76.98 50.7V53.98C76.98 54.46 76.98 54.8533 76.98 55.16C76.98 55.4533 76.98 55.7 76.98 55.9C76.9933 56.1 77 56.2733 77 56.42C77.0133 56.5533 77.0267 56.7 77.04 56.86C77.0667 57.2467 77.14 57.5133 77.26 57.66C77.38 57.8067 77.4933 57.92 77.6 58C77.6533 58.0533 77.7267 58.0933 77.82 58.12C77.9267 58.1467 78.04 58.1667 78.16 58.18C78.28 58.1933 78.4 58.2 78.52 58.2C78.6533 58.2 78.7733 58.2 78.88 58.2L78.98 58.28L79.04 59.04L79 59.12ZM86.6502 58.86C86.6902 58.74 86.7168 58.5667 86.7302 58.34C86.7568 58.1133 86.7902 57.9067 86.8302 57.72L86.8102 57.66C86.6502 57.86 86.4635 58.0533 86.2502 58.24C86.0502 58.4267 85.8235 58.5933 85.5702 58.74C85.3168 58.8867 85.0435 59 84.7502 59.08C84.4702 59.1733 84.1702 59.22 83.8502 59.22C83.3702 59.22 82.9502 59.1467 82.5902 59C82.2302 58.8533 81.9302 58.66 81.6902 58.42C81.4502 58.18 81.2635 57.9 81.1302 57.58C81.0102 57.26 80.9502 56.9267 80.9502 56.58C80.9502 56.06 81.0635 55.6067 81.2902 55.22C81.5168 54.8333 81.8168 54.52 82.1902 54.28C82.5368 54.0533 82.9435 53.88 83.4102 53.76C83.8768 53.6267 84.3302 53.5267 84.7702 53.46C85.2102 53.3933 85.6102 53.3533 85.9702 53.34C86.3302 53.3133 86.5702 53.3 86.6902 53.3H86.9702C86.9568 52.8867 86.9302 52.5667 86.8902 52.34C86.8502 52.1 86.7968 51.9 86.7302 51.74C86.6102 51.4733 86.4102 51.2867 86.1302 51.18C85.8635 51.06 85.5435 51 85.1702 51C84.9435 51 84.6968 51.02 84.4302 51.06C84.1768 51.0867 83.9368 51.1467 83.7102 51.24C83.4835 51.3333 83.2835 51.4667 83.1102 51.64C82.9502 51.8 82.8568 52.0133 82.8302 52.28L82.7502 52.34H82.1102L81.9302 50.46L81.9902 50.34C82.0702 50.26 82.2235 50.1733 82.4502 50.08C82.6768 49.9867 82.9502 49.9 83.2702 49.82C83.5902 49.7267 83.9368 49.6533 84.3102 49.6C84.6968 49.5333 85.0835 49.5 85.4702 49.5C85.9902 49.5 86.4768 49.5667 86.9302 49.7C87.3835 49.82 87.7702 50.0067 88.0902 50.26C88.4235 50.5133 88.6835 50.8333 88.8702 51.22C89.0568 51.5933 89.1502 52.0333 89.1502 52.54C89.1502 53.0867 89.1435 53.5533 89.1302 53.94C89.1302 54.3267 89.1235 54.6867 89.1102 55.02C89.0968 55.3533 89.0835 55.68 89.0702 56C89.0702 56.3067 89.0702 56.6533 89.0702 57.04C89.0968 57.3467 89.1302 57.5667 89.1702 57.7C89.2102 57.8333 89.2768 57.94 89.3702 58.02C89.4768 58.1267 89.6368 58.1933 89.8502 58.22C90.0768 58.2333 90.2835 58.24 90.4702 58.24L90.5302 58.32L90.5702 59L90.5502 59.08C90.3235 59.0533 90.0635 59.0333 89.7702 59.02C89.4768 59.0067 89.2035 59 88.9502 59C88.5768 59 88.2035 59 87.8302 59C87.4568 59.0133 87.1035 59.0333 86.7702 59.06L86.6502 58.86ZM86.6502 56.7C86.6902 56.6333 86.7302 56.5533 86.7702 56.46C86.8235 56.3667 86.8568 56.2533 86.8702 56.12L86.9702 54.42H86.7902C86.3768 54.42 85.9702 54.4467 85.5702 54.5C85.1702 54.5533 84.8102 54.6533 84.4902 54.8C84.1702 54.9467 83.9102 55.1533 83.7102 55.42C83.5102 55.6867 83.4102 56.0333 83.4102 56.46C83.4102 56.82 83.4968 57.1067 83.6702 57.32C83.8568 57.5333 84.1035 57.64 84.4102 57.64C84.6368 57.64 84.8635 57.6133 85.0902 57.56C85.3302 57.4933 85.5502 57.4133 85.7502 57.32C85.9502 57.2267 86.1302 57.1267 86.2902 57.02C86.4502 56.9 86.5702 56.7933 86.6502 56.7ZM99.0822 52.54L99.0022 52.48C99.0022 52.1733 98.9089 51.9267 98.7222 51.74C98.5489 51.54 98.3355 51.3867 98.0822 51.28C97.8289 51.1733 97.5555 51.1 97.2622 51.06C96.9822 51.02 96.7355 51 96.5222 51C96.0422 51 95.6222 51.0933 95.2622 51.28C94.9022 51.4667 94.6089 51.7133 94.3822 52.02C94.1555 52.3267 93.9822 52.68 93.8622 53.08C93.7555 53.48 93.7022 53.8933 93.7022 54.32C93.7022 54.7733 93.7622 55.2067 93.8822 55.62C94.0155 56.0333 94.2089 56.4 94.4622 56.72C94.7155 57.04 95.0355 57.3 95.4222 57.5C95.8222 57.6867 96.2889 57.78 96.8222 57.78C97.2755 57.78 97.7555 57.7333 98.2622 57.64C98.7689 57.5467 99.2222 57.3933 99.6222 57.18L99.9622 57.66L99.6622 58.22C99.5155 58.3267 99.3222 58.44 99.0822 58.56C98.8555 58.6667 98.5955 58.7733 98.3022 58.88C98.0089 58.9733 97.6889 59.0533 97.3422 59.12C97.0089 59.1867 96.6755 59.22 96.3422 59.22C95.6889 59.22 95.0622 59.1067 94.4622 58.88C93.8755 58.64 93.3555 58.3133 92.9022 57.9C92.4622 57.4733 92.1089 56.9667 91.8422 56.38C91.5755 55.78 91.4422 55.12 91.4422 54.4C91.4422 53.6667 91.5755 53 91.8422 52.4C92.1089 51.8 92.4755 51.2867 92.9422 50.86C93.4089 50.4333 93.9489 50.1 94.5622 49.86C95.1889 49.62 95.8555 49.5 96.5622 49.5C96.8822 49.5 97.2022 49.5267 97.5222 49.58C97.8555 49.62 98.1689 49.6733 98.4622 49.74C98.7689 49.8067 99.0422 49.8867 99.2822 49.98C99.5222 50.06 99.7155 50.14 99.8622 50.22L99.9222 50.4L99.7022 52.54H99.0822ZM79 81.12C78.9067 81.12 78.76 81.1133 78.56 81.1C78.36 81.0867 78.1467 81.0733 77.92 81.06C77.6933 81.0467 77.48 81.0333 77.28 81.02C77.08 81.0067 76.9333 81 76.84 81H74.9C74.8067 81 74.66 81.0067 74.46 81.02C74.26 81.0333 74.0467 81.0467 73.82 81.06C73.6067 81.0733 73.4 81.0867 73.2 81.1C73 81.1133 72.8533 81.12 72.76 81.12L72.72 81.04L72.78 80.28L72.88 80.2C73.08 80.2 73.3133 80.1933 73.58 80.18C73.86 80.1667 74.06 80.1067 74.18 80C74.2867 79.9067 74.3933 79.7867 74.5 79.64C74.6067 79.4933 74.68 79.2333 74.72 78.86C74.7333 78.7667 74.74 78.66 74.74 78.54C74.7533 78.4067 74.76 78.2467 74.76 78.06C74.7733 77.8733 74.78 77.6467 74.78 77.38C74.78 77.1133 74.78 76.78 74.78 76.38V72.72C74.78 71.9867 74.7733 71.3333 74.76 70.76C74.7467 70.1867 74.7333 69.76 74.72 69.48H74.5C73.9933 69.48 73.5733 69.4867 73.24 69.5C72.9067 69.5 72.64 69.5133 72.44 69.54C72.24 69.5533 72.0867 69.5733 71.98 69.6C71.8867 69.6267 71.82 69.66 71.78 69.7C71.6333 69.7667 71.5133 69.8733 71.42 70.02C71.3267 70.1667 71.2667 70.34 71.24 70.54L71.16 70.62H70.3L70.44 67.94L70.52 67.76L70.64 67.7C70.7467 67.74 70.98 67.78 71.34 67.82C71.7 67.8467 72.0933 67.8667 72.52 67.88C72.9467 67.8933 73.3533 67.9067 73.74 67.92C74.14 67.92 74.4267 67.92 74.6 67.92H77.12C77.2933 67.92 77.5733 67.92 77.96 67.92C78.36 67.9067 78.7733 67.8933 79.2 67.88C79.6267 67.8667 80.02 67.8467 80.38 67.82C80.74 67.78 80.9733 67.74 81.08 67.7L81.2 67.76L81.28 67.94L81.44 70.62H80.56L80.48 70.54C80.4533 70.34 80.3933 70.1667 80.3 70.02C80.2067 69.8733 80.0867 69.7667 79.94 69.7C79.9 69.6467 79.8267 69.6067 79.72 69.58C79.6267 69.54 79.48 69.5133 79.28 69.5C79.08 69.4867 78.8133 69.48 78.48 69.48C78.16 69.48 77.7467 69.48 77.24 69.48H77.02C77.0067 69.8 76.9933 70.2267 76.98 70.76C76.98 71.2933 76.98 71.94 76.98 72.7V75.98C76.98 76.46 76.98 76.8533 76.98 77.16C76.98 77.4533 76.98 77.7 76.98 77.9C76.9933 78.1 77 78.2733 77 78.42C77.0133 78.5533 77.0267 78.7 77.04 78.86C77.0667 79.2467 77.14 79.5133 77.26 79.66C77.38 79.8067 77.4933 79.92 77.6 80C77.6533 80.0533 77.7267 80.0933 77.82 80.12C77.9267 80.1467 78.04 80.1667 78.16 80.18C78.28 80.1933 78.4 80.2 78.52 80.2C78.6533 80.2 78.7733 80.2 78.88 80.2L78.98 80.28L79.04 81.04L79 81.12ZM85.8934 71.5C86.6801 71.5 87.3801 71.64 87.9934 71.92C88.6068 72.1867 89.1201 72.5533 89.5334 73.02C89.9601 73.4733 90.2801 74 90.4934 74.6C90.7201 75.2 90.8334 75.82 90.8334 76.46C90.8334 77.0733 90.7334 77.6667 90.5334 78.24C90.3334 78.8133 90.0268 79.32 89.6134 79.76C89.2001 80.2 88.6868 80.5533 88.0734 80.82C87.4601 81.0867 86.7468 81.22 85.9334 81.22C85.0934 81.22 84.3601 81.08 83.7334 80.8C83.1068 80.52 82.5868 80.1533 82.1734 79.7C81.7734 79.2467 81.4734 78.7333 81.2734 78.16C81.0734 77.5733 80.9734 76.9733 80.9734 76.36C80.9734 75.7067 81.0868 75.0867 81.3134 74.5C81.5401 73.9133 81.8601 73.4 82.2734 72.96C82.7001 72.5067 83.2134 72.1533 83.8134 71.9C84.4268 71.6333 85.1201 71.5 85.8934 71.5ZM85.9134 79.84C86.3268 79.84 86.6868 79.7467 86.9934 79.56C87.3134 79.36 87.5801 79.1067 87.7934 78.8C88.0068 78.48 88.1601 78.12 88.2534 77.72C88.3601 77.3067 88.4134 76.8867 88.4134 76.46C88.4134 76.0467 88.3534 75.6333 88.2334 75.22C88.1268 74.7933 87.9601 74.4133 87.7334 74.08C87.5201 73.7467 87.2534 73.4733 86.9334 73.26C86.6134 73.0467 86.2468 72.94 85.8334 72.94C85.4068 72.94 85.0334 73.04 84.7134 73.24C84.4068 73.44 84.1534 73.7 83.9534 74.02C83.7534 74.34 83.6001 74.7 83.4934 75.1C83.4001 75.5 83.3534 75.9067 83.3534 76.32C83.3534 76.7467 83.4068 77.1667 83.5134 77.58C83.6334 77.9933 83.8001 78.3733 84.0134 78.72C84.2401 79.0533 84.5134 79.3267 84.8334 79.54C85.1534 79.74 85.5134 79.84 85.9134 79.84ZM100.923 75.9L100.443 76.26C99.723 76.26 99.0096 76.2667 98.303 76.28C97.6096 76.2933 96.8963 76.3 96.163 76.3H94.523C94.5096 76.3933 94.503 76.4867 94.503 76.58C94.503 76.66 94.503 76.74 94.503 76.82C94.503 77.1667 94.563 77.5133 94.683 77.86C94.803 78.2067 94.9896 78.52 95.243 78.8C95.5096 79.0667 95.843 79.2867 96.243 79.46C96.643 79.62 97.1296 79.7 97.703 79.7C98.1163 79.7 98.5496 79.6467 99.003 79.54C99.4696 79.42 99.903 79.2667 100.303 79.08L100.643 79.22V79.94L100.443 80.16C100.123 80.4133 99.6496 80.6533 99.023 80.88C98.4096 81.1067 97.743 81.22 97.023 81.22C96.3163 81.22 95.6696 81.1067 95.083 80.88C94.5096 80.64 94.0096 80.3067 93.583 79.88C93.1696 79.4533 92.843 78.9467 92.603 78.36C92.3763 77.7733 92.263 77.12 92.263 76.4C92.263 75.6667 92.383 75 92.623 74.4C92.863 73.8 93.1896 73.2867 93.603 72.86C94.0296 72.4333 94.523 72.1 95.083 71.86C95.6563 71.62 96.2696 71.5 96.923 71.5C97.2696 71.5 97.6563 71.5467 98.083 71.64C98.523 71.7333 98.943 71.9133 99.343 72.18C99.743 72.4333 100.103 72.8 100.423 73.28C100.743 73.7467 100.963 74.3667 101.083 75.14L100.923 75.9ZM96.943 73C96.2896 73 95.763 73.2 95.363 73.6C94.9763 73.9867 94.7296 74.44 94.623 74.96H95.623C96.0896 74.96 96.5496 74.9533 97.003 74.94C97.4563 74.9133 97.9163 74.9 98.383 74.9C98.5563 74.9 98.683 74.8533 98.763 74.76C98.843 74.6533 98.883 74.5467 98.883 74.44C98.883 74.04 98.6896 73.7 98.303 73.42C97.9163 73.14 97.463 73 96.943 73Z" fill="black"/>
</svg>
